<svg width="500" height="500" viewBox="0 0 500 500" fill="none" xmlns="http://www.w3.org/2000/svg">
  <!-- Global Wreath (Blue) -->
  <path d="M120 420C70 370 50 280 50 210C50 140 70 50 120 0" stroke="#0066FF" stroke-width="18" stroke-linecap="round" fill="none"/>
  <path d="M380 420C430 370 450 280 450 210C450 140 430 50 380 0" stroke="#0066FF" stroke-width="18" stroke-linecap="round" fill="none"/>
  
  <!-- Central Globe (Blue) -->
  <circle cx="250" cy="200" r="160" fill="#0066FF"/>
  
  <!-- Map Details (White) - Simplified stylized map -->
  <path d="M150 150C180 120 220 110 260 110C300 110 330 120 350 150" stroke="white" stroke-width="2" fill="none" opacity="0.5"/>
  <path d="M120 200C160 180 200 175 250 175C300 175 340 180 380 200" stroke="white" stroke-width="2" fill="none" opacity="0.5"/>
  <path d="M150 250C180 280 220 290 260 290C300 290 330 280 350 250" stroke="white" stroke-width="2" fill="none" opacity="0.5"/>
  
  <!-- Human Figure / Leaves (White) -->
  <circle cx="250" cy="155" r="15" fill="white"/>
  <path d="M250 170V310" stroke="white" stroke-width="22" stroke-linecap="round"/>
  <!-- Left Leaf/Arm -->
  <path d="M250 200C250 200 210 175 180 145C150 115 180 85 210 115C230 135 250 170 250 200Z" fill="white"/>
  <!-- Right Leaf/Arm -->
  <path d="M250 200C250 200 290 175 320 145C350 115 320 85 290 115C270 135 250 170 250 200Z" fill="white"/>
  
  <!-- MSP Text (Blue) -->
  <text x="250" y="470" text-anchor="middle" fill="#0066FF" font-family="Arial, sans-serif" font-weight="900" font-size="80">MSP</text>
</svg>