<svg
  width="100"
  height="100"
  viewBox="0 0 100 100"
  fill="none"
  xmlns="http://www.w3.org/2000/svg"
>
  <path
    d="M25 78C15 68 12 53 15 38M75 78C85 68 88 53 85 38"
    stroke="#2563eb"
    stroke-width="3"
    stroke-linecap="round"
  />
  <path d="M12 73L18 67M10 61L17 58M10 48L17 48M12 35L18 41" stroke="#2563eb" stroke-width="2.5" />
  <path d="M88 73L82 67M90 61L83 58M90 48L83 48M88 35L82 41" stroke="#2563eb" stroke-width="2.5" />
  <circle cx="50" cy="45" r="34" fill="#2563eb" />
  <path
    d="M32 38C38 33 58 33 68 38C72 48 62 60 50 63C38 60 28 48 32 38Z"
    fill="white"
    fill-opacity="0.25"
  />
  <path d="M28 45Q40 40 50 50Q60 60 72 55" stroke="white" stroke-width="0.8" stroke-opacity="0.4" />
  <path
    d="M50 64V46"
    stroke="white"
    stroke-width="6"
    stroke-linecap="round"
  />
  <path
    d="M50 50C44 42 32 40 25 45C30 40 40 38 50 46"
    fill="white"
  />
  <path
    d="M50 55C44 50 32 50 25 55C30 50 40 48 50 53"
    fill="white"
  />
  <path
    d="M50 50C56 42 68 40 75 45C70 40 60 38 50 46"
    fill="white"
  />
   <path
    d="M50 55C56 50 68 50 75 55C70 50 60 48 50 53"
    fill="white"
  />
  <circle cx="50" cy="38" r="6" fill="white" />
  <text
    x="50"
    y="96"
    text-anchor="middle"
    fill="#2563eb"
    font-size="24"
    font-weight="900"
    font-family="sans-serif"
    letter-spacing="1"
  >
    MSP
  </text>
</svg>